<svg xmlns="http://www.w3.org/2000/svg" width="16.814" height="16.82" viewBox="0 0 16.814 16.82"><defs><style>.a{fill:#063c7a;}</style></defs><g transform="translate(-0.096 0)"><g transform="translate(0.096 0)"><g transform="translate(0 0)"><path class="a" d="M16.175.738a2.532,2.532,0,0,0-3.568,0,.281.281,0,0,0-.061.092.273.273,0,0,0-.019.1l0,.01a.28.28,0,0,0,.021.107.273.273,0,0,0,.061.092l1.388,1.388-.537.536A7.279,7.279,0,0,0,8.519,1.126a.047.047,0,0,0-.013,0l-.013,0A7.278,7.278,0,0,0,3.553,3.06l-.537-.537L4.4,1.135a.273.273,0,0,0,.061-.092A.28.28,0,0,0,4.487.937s0-.006,0-.01a.247.247,0,0,0-.07-.173S4.409.744,4.4.739A2.524,2.524,0,1,0,.835,4.308s.01.005.014.009a.275.275,0,0,0,.078.052.28.28,0,0,0,.1.019l.01,0a.286.286,0,0,0,.106-.021.28.28,0,0,0,.092-.061L2.62,2.92l.537.537A7.287,7.287,0,0,0,4.362,14.4l-1.94,1.94a.28.28,0,1,0,.389.4l.007-.007,2.028-2.028a7.261,7.261,0,0,0,7.318,0l2.028,2.028a.28.28,0,0,0,.4-.4l-1.94-1.94A7.289,7.289,0,0,0,13.854,3.456l.537-.537,1.388,1.388a.28.28,0,0,0,.092.061.286.286,0,0,0,.107.021l.01,0a.28.28,0,0,0,.1-.019.275.275,0,0,0,.078-.052s.01-.005.014-.009A2.535,2.535,0,0,0,16.175.738ZM1.048,3.7A1.963,1.963,0,0,1,3.795.952ZM15.22,8.129H13.831a.28.28,0,1,0,0,.561h1.394a6.734,6.734,0,0,1-6.439,6.439V13.734a.28.28,0,1,0-.561,0v1.394A6.734,6.734,0,0,1,1.786,8.689H3.181a.28.28,0,0,0,0-.561H1.791A6.694,6.694,0,0,1,3.734,3.662s.01-.005.014-.01.006-.01.01-.014A6.689,6.689,0,0,1,8.225,1.695V3.084a.28.28,0,1,0,.561,0V1.695a6.689,6.689,0,0,1,4.467,1.943s.005.01.01.014.01.006.014.01A6.694,6.694,0,0,1,15.22,8.129Zm.742-4.43L13.216.952A1.962,1.962,0,0,1,15.962,3.7Z" transform="translate(-0.096 0)"/><path class="a" d="M162.8,164.1h0l-3.188,1.84a1.116,1.116,0,0,0-1.578-.019l-.019.019-1.731-1a.28.28,0,1,0-.283.484l0,0,1.734,1a1.121,1.121,0,1,0,2.152,0l3.191-1.842a.28.28,0,0,0-.28-.485Zm-3.986,3.185a.561.561,0,1,1,.561-.561A.561.561,0,0,1,158.817,167.286Z" transform="translate(-150.408 -158.316)"/></g></g></g></svg>