<svg xmlns="http://www.w3.org/2000/svg" width="21.317" height="21.325" viewBox="0 0 21.317 21.325"><defs><style>.a{fill:#fff;}</style></defs><g transform="translate(-0.096 0)"><g transform="translate(0.096 0)"><g transform="translate(0 0)"><path class="a" d="M20.482.936a3.21,3.21,0,0,0-4.524,0,.356.356,0,0,0-.077.117.346.346,0,0,0-.025.123s0,.008,0,.012a.355.355,0,0,0,.027.135.346.346,0,0,0,.077.116l1.76,1.76-.68.68a9.229,9.229,0,0,0-6.262-2.452.06.06,0,0,0-.017,0c-.006,0-.011,0-.017,0A9.227,9.227,0,0,0,4.479,3.88L3.8,3.2l1.76-1.76a.346.346,0,0,0,.077-.116.355.355,0,0,0,.027-.135s0-.008,0-.012a.313.313,0,0,0-.089-.22C5.566.95,5.564.943,5.558.937A3.2,3.2,0,1,0,1.033,5.461c0,.005.012.007.017.012a.348.348,0,0,0,.1.065.355.355,0,0,0,.122.025l.013,0a.363.363,0,0,0,.135-.027.355.355,0,0,0,.116-.077L3.3,3.7l.68.68A9.238,9.238,0,0,0,5.5,18.255l-2.46,2.46a.355.355,0,1,0,.494.511l.009-.009,2.571-2.571a9.206,9.206,0,0,0,9.278,0l2.571,2.571a.355.355,0,0,0,.5-.5l-2.46-2.46A9.241,9.241,0,0,0,17.538,4.382l.681-.68,1.76,1.76a.355.355,0,0,0,.116.077.363.363,0,0,0,.135.027l.013,0a.355.355,0,0,0,.122-.025.348.348,0,0,0,.1-.065c.005,0,.012-.006.017-.012A3.213,3.213,0,0,0,20.482.936ZM1.3,4.69A2.489,2.489,0,0,1,4.786,1.207ZM19.27,10.306H17.509a.355.355,0,1,0,0,.711h1.768a8.537,8.537,0,0,1-8.164,8.164V17.412a.355.355,0,1,0-.711,0V19.18a8.537,8.537,0,0,1-8.164-8.164H4.007a.355.355,0,1,0,0-.711H2.245A8.487,8.487,0,0,1,4.709,4.642c.006,0,.013-.007.018-.012s.007-.012.012-.018A8.481,8.481,0,0,1,10.4,2.149V3.91a.355.355,0,1,0,.711,0V2.149a8.48,8.48,0,0,1,5.663,2.463c0,.006.007.013.012.018s.012.007.018.012A8.487,8.487,0,0,1,19.27,10.306Zm.941-5.617L16.729,1.207a2.487,2.487,0,0,1,3.482,3.482Z" transform="translate(-0.096 0)"/><path class="a" d="M164.661,164.11h0l-4.041,2.333a1.415,1.415,0,0,0-2-.025l-.025.025-2.195-1.267a.355.355,0,1,0-.359.613l0,0,2.2,1.269a1.421,1.421,0,1,0,2.728,0l4.045-2.335a.355.355,0,0,0-.355-.615Zm-5.053,4.039a.711.711,0,1,1,.711-.711A.711.711,0,0,1,159.608,168.149Z" transform="translate(-148.946 -156.777)"/></g></g></g></svg>