<svg xmlns="http://www.w3.org/2000/svg" width="19.809" height="18.378" viewBox="0 0 19.809 18.378"><path d="M18.358,18.5H1.451A1.453,1.453,0,0,0,0,19.951V32.719a1.453,1.453,0,0,0,1.451,1.451H7.644l-.349,1.222a1.341,1.341,0,0,1-1.2.906H3.908a.29.29,0,0,0,0,.58H15.9a.29.29,0,0,0,0-.58H13.716a1.341,1.341,0,0,1-1.2-.906l-.349-1.222h6.193a1.453,1.453,0,0,0,1.451-1.451V19.951A1.453,1.453,0,0,0,18.358,18.5Zm-16.908.58H18.358a.872.872,0,0,1,.871.871V30.107H.58V19.951A.872.872,0,0,1,1.451,19.08ZM11.957,35.551a1.77,1.77,0,0,0,.445.746h-5a1.771,1.771,0,0,0,.445-.746l.395-1.382h3.315Zm6.4-1.962H1.451a.872.872,0,0,1-.871-.871V30.687H19.229v2.031A.872.872,0,0,1,18.358,33.589Z" transform="translate(0 -18.5)"/><path d="M30.29,58.366H47.2a.29.29,0,0,0,.29-.29V48.79a.29.29,0,0,0-.29-.29H30.29a.29.29,0,0,0-.29.29v4.062a.29.29,0,0,0,.58,0V49.08H46.908v8.705H30.58V54.013a.29.29,0,0,0-.58,0v4.062A.29.29,0,0,0,30.29,58.366Z" transform="translate(-28.839 -47.339)"/><path d="M234.371,348.5a.871.871,0,1,0,.871.871A.872.872,0,0,0,234.371,348.5Zm0,1.161a.29.29,0,1,1,.29-.29A.29.29,0,0,1,234.371,349.661Z" transform="translate(-224.466 -335.732)"/></svg>