<svg xmlns="http://www.w3.org/2000/svg" width="117" height="117" viewBox="0 0 117 117"><defs><style>.a{fill:#fff;stroke:#fabe2c;stroke-width:5px;}.b{fill:#646d73;}.c{fill:#474f54;}.d{fill:#fed843;}.e{fill:#fabe2c;}.f{fill:#ff9100;}.g{fill:#32393f;}.h{stroke:none;}.i{fill:none;}</style></defs><g transform="translate(-642 -287)"><g class="a" transform="translate(642 287)"><circle class="h" cx="58.5" cy="58.5" r="58.5"/><circle class="i" cx="58.5" cy="58.5" r="56"/></g><g transform="translate(297 -94)"><g transform="translate(374 410)"><g transform="translate(17.373 45.941)"><path class="b" d="M175.023,402.752,163.081,399.3l-11.943,3.452a1.4,1.4,0,0,0-.138.656v7.133h24.161v-7.133A1.4,1.4,0,0,0,175.023,402.752Z" transform="translate(-151 -399.3)"/></g><path class="c" d="M268.081,410.541v-7.133a1.4,1.4,0,0,0-.138-.656L256,399.3v11.241Z" transform="translate(-226.546 -353.359)"/><path class="d" d="M57.182,3.452H48.363c.015-.583.074-1.132.074-1.726A1.709,1.709,0,0,0,46.712,0H12.2A1.709,1.709,0,0,0,10.47,1.726c0,.594.059,1.143.074,1.726H1.726A1.725,1.725,0,0,0,0,5.177V9.549A18.139,18.139,0,0,0,17.232,27.517a17.108,17.108,0,0,0,7.01,5.894A25.787,25.787,0,0,1,17.891,48.84a1.225,1.225,0,0,0-.38.552H41.4a1.226,1.226,0,0,0-.38-.552,25.457,25.457,0,0,1-6.351-15.429,17.153,17.153,0,0,0,7.026-5.9A18.139,18.139,0,0,0,58.907,9.549V5.177a1.725,1.725,0,0,0-1.726-1.726Zm-53.73,6.1V6.9h7.24a45.83,45.83,0,0,0,4.285,16.879A14.723,14.723,0,0,1,3.452,9.549Zm52,0A14.722,14.722,0,0,1,43.94,23.779,46.017,46.017,0,0,0,48.215,6.9h7.24Z"/><path class="e" d="M283.728,3.452H274.91c.015-.583.074-1.132.074-1.726A1.709,1.709,0,0,0,273.258,0H256V49.392h11.943a1.226,1.226,0,0,0-.38-.552,25.457,25.457,0,0,1-6.351-15.429,17.154,17.154,0,0,0,7.026-5.9A18.139,18.139,0,0,0,285.454,9.549V5.177a1.725,1.725,0,0,0-1.726-1.726ZM282,9.549a14.722,14.722,0,0,1-11.516,14.23A46.007,46.007,0,0,0,274.762,6.9H282Z" transform="translate(-226.546)"/><g transform="translate(21.984 7.843)"><path class="e" d="M201.3,82.275l-2.754-1.431-2.754,1.431a1.725,1.725,0,0,1-2.5-1.813L193.8,77.4l-2.208-2.179a1.725,1.725,0,0,1,.954-2.936l3.067-.462L197,69.044a1.8,1.8,0,0,1,3.088,0l1.389,2.776,3.067.462a1.725,1.725,0,0,1,.954,2.936L203.294,77.4l.506,3.066a1.725,1.725,0,0,1-2.5,1.813Z" transform="translate(-191.079 -68.167)"/></g><path class="f" d="M258.754,82.275a1.725,1.725,0,0,0,2.5-1.813l-.506-3.066,2.208-2.179A1.725,1.725,0,0,0,262,72.281l-3.067-.462-1.389-2.776A1.689,1.689,0,0,0,256,68.166V80.844Z" transform="translate(-226.546 -60.323)"/><g transform="translate(13.921 55.456)"><path class="c" d="M150.339,485.452H122.726a1.726,1.726,0,1,1,0-3.452h27.613a1.726,1.726,0,1,1,0,3.452Z" transform="translate(-121 -482)"/></g><path class="g" d="M269.806,482H256v3.452h13.806a1.726,1.726,0,1,0,0-3.452Z" transform="translate(-226.546 -426.544)"/></g></g></g></svg>