<svg xmlns="http://www.w3.org/2000/svg" width="7.988" height="12.622" viewBox="0 0 7.988 12.622"><defs><style>.a{fill:#0f1eec;}</style></defs><g transform="translate(0 0)"><path class="a" d="M64.008,3.3H62.256A3.725,3.725,0,0,0,60.873.733h3.135a.357.357,0,0,0,.345-.367A.357.357,0,0,0,64.008,0h-7.3a.357.357,0,0,0-.345.367.357.357,0,0,0,.345.367H58.8A2.851,2.851,0,0,1,61.562,3.3H56.71a.367.367,0,0,0,0,.733h4.853a2.857,2.857,0,0,1-2.763,2.6H56.713a.363.363,0,0,0-.345.378.39.39,0,0,0,.107.264l5.218,5.246a.329.329,0,0,0,.486-.015.391.391,0,0,0-.014-.524l-4.59-4.615H58.8a3.573,3.573,0,0,0,3.459-3.336h1.752a.367.367,0,0,0,0-.733Z" transform="translate(-56.365)"/><path class="a" d="M64.008,3.3H62.256A3.725,3.725,0,0,0,60.873.733h3.135a.357.357,0,0,0,.345-.367A.357.357,0,0,0,64.008,0h-7.3a.357.357,0,0,0-.345.367.357.357,0,0,0,.345.367H58.8A2.851,2.851,0,0,1,61.562,3.3H56.71a.367.367,0,0,0,0,.733h4.853a2.857,2.857,0,0,1-2.763,2.6H56.713a.363.363,0,0,0-.345.378.39.39,0,0,0,.107.264l5.218,5.246a.329.329,0,0,0,.486-.015.391.391,0,0,0-.014-.524l-4.59-4.615H58.8a3.573,3.573,0,0,0,3.459-3.336h1.752a.367.367,0,0,0,0-.733Z" transform="translate(-56.365)"/></g></svg>