<svg xmlns="http://www.w3.org/2000/svg" width="12.718" height="18.874" viewBox="0 0 12.718 18.874"><circle cx="0.221" cy="0.221" r="0.221" transform="translate(6.138 1.161)"/><path d="M94.835,0H84.882A1.384,1.384,0,0,0,83.5,1.382V17.491a1.384,1.384,0,0,0,1.382,1.382h9.953a1.384,1.384,0,0,0,1.382-1.382V1.382A1.384,1.384,0,0,0,94.835,0Zm.829,17.491a.83.83,0,0,1-.829.829H84.882a.83.83,0,0,1-.829-.829V1.382a.83.83,0,0,1,.829-.829h9.953a.83.83,0,0,1,.829.829Z" transform="translate(-83.5)"/><path d="M206.541,437h-2.212a.829.829,0,0,0,0,1.659h2.212a.829.829,0,0,0,0-1.659Zm0,1.106h-2.212a.276.276,0,1,1,0-.553h2.212a.276.276,0,1,1,0,.553Z" transform="translate(-199.076 -420.891)"/><path d="M123.729,30h-3.413a.277.277,0,0,0-.2.081l-.781.782a.829.829,0,0,1-1.173,0l-.783-.782a.276.276,0,0,0-.2-.081h-3.413a.276.276,0,0,0-.276.276v6.4a.276.276,0,1,0,.553,0V30.553h3.022s.671.67.7.7h0a1.381,1.381,0,0,0,1.954,0l.7-.7h3.022V43.9h-9.4V37.778a.276.276,0,1,0-.553,0v6.4a.276.276,0,0,0,.276.276h9.953a.276.276,0,0,0,.276-.276v-13.9A.276.276,0,0,0,123.729,30Z" transform="translate(-112.394 -28.894)"/></svg>